# xmcd
#
# Track frame offsets:
#	150
#	42950
#	75980
#	108104
#	184747
#
# Disc length: 2808 seconds
#
# Revision: 0
# Processed by: cddbd v1.4PL0 Copyright (c) Steve Scherf et al.
# Submitted via: EasyCDDAExtractor 4.6.9.1
#
DISCID=2e0af605
DTITLE=Jello Biafra - Machine Gun In The Clown's Hand DISK 3
DYEAR=2002
DGENRE=spoken_word
TTITLE0=Cowboy Cornholio and the Sunshine State
TTITLE1=And Gore Made Us Want To Ralph
TTITLE2=The Rolling Blackout Revue
TTITLE3=12 Steps To Corporate-Free Sobriety
TTITLE4=Joey Ramone
EXTD=
EXTT0=
EXTT1=
EXTT2=
EXTT3=
EXTT4=
PLAYORDER=
